<?xml version="1.0" encoding="UTF-8" standalone="no"?>
<!DOCTYPE svg PUBLIC "-//W3C//DTD SVG 1.1//EN"
 "http://www.w3.org/Graphics/SVG/1.1/DTD/svg11.dtd">
<!-- Generated by graphviz version 2.47.1 (20210417.1919)
 -->
<!-- Title: Máquina de turing que valida uma sequência que tem o mesmo número de 0&#39;s, 1&#39;s e 2&#39;s (0^n1^n2^n) Pages: 1 -->
<svg width="481pt" height="228pt"
 viewBox="0.00 0.00 481.35 227.85" xmlns="http://www.w3.org/2000/svg" xmlns:xlink="http://www.w3.org/1999/xlink">
<g id="graph0" class="graph" transform="scale(1 1) rotate(0) translate(4 223.85)">
<title>Máquina de turing que valida uma sequência que tem o mesmo número de 0&#39;s, 1&#39;s e 2&#39;s (0^n1^n2^n)</title>
<polygon fill="white" stroke="transparent" points="-4,4 -4,-223.85 477.35,-223.85 477.35,4 -4,4"/>
<!-- Start -->
<g id="node1" class="node">
<title>Start</title>
</g>
<!-- A -->
<g id="node2" class="node">
<title>A</title>
<ellipse fill="none" stroke="black" cx="109" cy="-109.85" rx="18" ry="18"/>
<text text-anchor="middle" x="109" y="-106.15" font-family="Times New Roman,serif" font-size="14.00">A</text>
</g>
<!-- Start&#45;&gt;A -->
<g id="edge1" class="edge">
<title>Start&#45;&gt;A</title>
<path fill="none" stroke="black" d="M54.19,-109.85C62.65,-109.85 72.05,-109.85 80.6,-109.85"/>
<polygon fill="black" stroke="black" points="90.83,-109.85 80.83,-114.35 85.83,-109.85 80.83,-109.85 80.83,-109.85 80.83,-109.85 85.83,-109.85 80.83,-105.35 90.83,-109.85 90.83,-109.85"/>
</g>
<!-- B -->
<g id="node5" class="node">
<title>B</title>
<ellipse fill="none" stroke="black" cx="211" cy="-109.85" rx="18" ry="18"/>
<text text-anchor="middle" x="211" y="-106.15" font-family="Times New Roman,serif" font-size="14.00">B</text>
</g>
<!-- A&#45;&gt;B -->
<g id="edge2" class="edge">
<title>A&#45;&gt;B</title>
<path fill="none" stroke="black" d="M127.42,-109.85C142.62,-109.85 164.93,-109.85 182.54,-109.85"/>
<polygon fill="black" stroke="black" points="192.78,-109.85 182.78,-114.35 187.78,-109.85 182.78,-109.85 182.78,-109.85 182.78,-109.85 187.78,-109.85 182.78,-105.35 192.78,-109.85 192.78,-109.85"/>
<text text-anchor="middle" x="160" y="-113.65" font-family="Times New Roman,serif" font-size="14.00">0XR</text>
</g>
<!-- E -->
<g id="node7" class="node">
<title>E</title>
<ellipse fill="none" stroke="black" cx="211" cy="-22.85" rx="18" ry="18"/>
<text text-anchor="middle" x="211" y="-19.15" font-family="Times New Roman,serif" font-size="14.00">E</text>
</g>
<!-- A&#45;&gt;E -->
<g id="edge9" class="edge">
<title>A&#45;&gt;E</title>
<path fill="none" stroke="black" d="M123.07,-98.47C139.92,-83.82 169.39,-58.18 189.3,-40.86"/>
<polygon fill="black" stroke="black" points="196.92,-34.22 192.33,-44.18 193.15,-37.51 189.38,-40.79 189.38,-40.79 189.38,-40.79 193.15,-37.51 186.43,-37.39 196.92,-34.22 196.92,-34.22"/>
<text text-anchor="middle" x="160" y="-83.65" font-family="Times New Roman,serif" font-size="14.00">YYR</text>
</g>
<!-- F -->
<g id="node3" class="node">
<title>F</title>
<ellipse fill="none" stroke="black" cx="313" cy="-22.85" rx="18" ry="18"/>
<text text-anchor="middle" x="313" y="-19.15" font-family="Times New Roman,serif" font-size="14.00">F</text>
</g>
<!-- F&#45;&gt;F -->
<g id="edge12" class="edge">
<title>F&#45;&gt;F</title>
<path fill="none" stroke="black" d="M304.64,-39.14C302.62,-49.24 305.41,-58.85 313,-58.85 317.86,-58.85 320.76,-54.9 321.68,-49.41"/>
<polygon fill="black" stroke="black" points="321.36,-39.14 326.17,-49 321.52,-44.14 321.67,-49.13 321.67,-49.13 321.67,-49.13 321.52,-44.14 317.17,-49.27 321.36,-39.14 321.36,-39.14"/>
<text text-anchor="middle" x="313" y="-62.65" font-family="Times New Roman,serif" font-size="14.00">ZZR</text>
</g>
<!-- ha -->
<g id="node8" class="node">
<title>ha</title>
<ellipse fill="none" stroke="black" cx="413.85" cy="-22.85" rx="18.72" ry="18.72"/>
<ellipse fill="none" stroke="black" cx="413.85" cy="-22.85" rx="22.7" ry="22.7"/>
<text text-anchor="middle" x="413.85" y="-19.15" font-family="Times New Roman,serif" font-size="14.00">ha</text>
</g>
<!-- F&#45;&gt;ha -->
<g id="edge13" class="edge">
<title>F&#45;&gt;ha</title>
<path fill="none" stroke="black" d="M331.22,-22.85C344.83,-22.85 364.22,-22.85 380.68,-22.85"/>
<polygon fill="black" stroke="black" points="390.99,-22.85 380.99,-27.35 385.99,-22.85 380.99,-22.85 380.99,-22.85 380.99,-22.85 385.99,-22.85 380.99,-18.35 390.99,-22.85 390.99,-22.85"/>
<text text-anchor="middle" x="361" y="-26.65" font-family="Times New Roman,serif" font-size="14.00">$$R</text>
</g>
<!-- C -->
<g id="node4" class="node">
<title>C</title>
<ellipse fill="none" stroke="black" cx="313" cy="-109.85" rx="18" ry="18"/>
<text text-anchor="middle" x="313" y="-106.15" font-family="Times New Roman,serif" font-size="14.00">C</text>
</g>
<!-- C&#45;&gt;C -->
<g id="edge5" class="edge">
<title>C&#45;&gt;C</title>
<path fill="none" stroke="black" d="M304.64,-126.14C302.62,-136.24 305.41,-145.85 313,-145.85 317.86,-145.85 320.76,-141.9 321.68,-136.41"/>
<polygon fill="black" stroke="black" points="321.36,-126.14 326.17,-136 321.52,-131.14 321.67,-136.13 321.67,-136.13 321.67,-136.13 321.52,-131.14 317.17,-136.27 321.36,-126.14 321.36,-126.14"/>
<text text-anchor="middle" x="313" y="-149.65" font-family="Times New Roman,serif" font-size="14.00">11R, ZZR</text>
</g>
<!-- D -->
<g id="node6" class="node">
<title>D</title>
<ellipse fill="none" stroke="black" cx="413.85" cy="-168.85" rx="18" ry="18"/>
<text text-anchor="middle" x="413.85" y="-165.15" font-family="Times New Roman,serif" font-size="14.00">D</text>
</g>
<!-- C&#45;&gt;D -->
<g id="edge6" class="edge">
<title>C&#45;&gt;D</title>
<path fill="none" stroke="black" d="M329.01,-118.81C345,-128.35 370.52,-143.58 389.21,-154.74"/>
<polygon fill="black" stroke="black" points="398.02,-160 387.12,-158.74 393.72,-157.43 389.43,-154.87 389.43,-154.87 389.43,-154.87 393.72,-157.43 391.74,-151.01 398.02,-160 398.02,-160"/>
<text text-anchor="middle" x="361" y="-147.65" font-family="Times New Roman,serif" font-size="14.00">2ZL</text>
</g>
<!-- B&#45;&gt;C -->
<g id="edge4" class="edge">
<title>B&#45;&gt;C</title>
<path fill="none" stroke="black" d="M229.42,-109.85C244.62,-109.85 266.93,-109.85 284.54,-109.85"/>
<polygon fill="black" stroke="black" points="294.78,-109.85 284.78,-114.35 289.78,-109.85 284.78,-109.85 284.78,-109.85 284.78,-109.85 289.78,-109.85 284.78,-105.35 294.78,-109.85 294.78,-109.85"/>
<text text-anchor="middle" x="262" y="-113.65" font-family="Times New Roman,serif" font-size="14.00">1YR</text>
</g>
<!-- B&#45;&gt;B -->
<g id="edge3" class="edge">
<title>B&#45;&gt;B</title>
<path fill="none" stroke="black" d="M202.37,-125.76C200.11,-136 202.99,-145.85 211,-145.85 216.26,-145.85 219.3,-141.61 220.14,-135.8"/>
<polygon fill="black" stroke="black" points="219.63,-125.76 224.63,-135.53 219.88,-130.76 220.14,-135.75 220.14,-135.75 220.14,-135.75 219.88,-130.76 215.64,-135.98 219.63,-125.76 219.63,-125.76"/>
<text text-anchor="middle" x="211" y="-149.65" font-family="Times New Roman,serif" font-size="14.00">00R, YYR</text>
</g>
<!-- D&#45;&gt;A -->
<g id="edge8" class="edge">
<title>D&#45;&gt;A</title>
<path fill="none" stroke="black" d="M396.04,-172.4C358.49,-179.59 265.45,-193.29 193,-169.85 168.51,-161.92 145.18,-143.77 129.52,-129.5"/>
<polygon fill="black" stroke="black" points="122.07,-122.46 132.43,-126.06 125.71,-125.9 129.34,-129.33 129.34,-129.33 129.34,-129.33 125.71,-125.9 126.25,-132.6 122.07,-122.46 122.07,-122.46"/>
<text text-anchor="middle" x="262" y="-185.65" font-family="Times New Roman,serif" font-size="14.00">XXR</text>
</g>
<!-- D&#45;&gt;D -->
<g id="edge7" class="edge">
<title>D&#45;&gt;D</title>
<path fill="none" stroke="black" d="M404.87,-184.76C402.53,-195 405.52,-204.85 413.85,-204.85 419.31,-204.85 422.48,-200.61 423.35,-194.8"/>
<polygon fill="black" stroke="black" points="422.83,-184.76 427.84,-194.52 423.09,-189.76 423.35,-194.75 423.35,-194.75 423.35,-194.75 423.09,-189.76 418.86,-194.99 422.83,-184.76 422.83,-184.76"/>
<text text-anchor="middle" x="413.85" y="-208.65" font-family="Times New Roman,serif" font-size="14.00">11L, 00L, YYL, ZZL</text>
</g>
<!-- E&#45;&gt;F -->
<g id="edge11" class="edge">
<title>E&#45;&gt;F</title>
<path fill="none" stroke="black" d="M229.42,-22.85C244.62,-22.85 266.93,-22.85 284.54,-22.85"/>
<polygon fill="black" stroke="black" points="294.78,-22.85 284.78,-27.35 289.78,-22.85 284.78,-22.85 284.78,-22.85 284.78,-22.85 289.78,-22.85 284.78,-18.35 294.78,-22.85 294.78,-22.85"/>
<text text-anchor="middle" x="262" y="-26.65" font-family="Times New Roman,serif" font-size="14.00">ZZR</text>
</g>
<!-- E&#45;&gt;E -->
<g id="edge10" class="edge">
<title>E&#45;&gt;E</title>
<path fill="none" stroke="black" d="M202.37,-38.76C200.11,-49 202.99,-58.85 211,-58.85 216.26,-58.85 219.3,-54.61 220.14,-48.8"/>
<polygon fill="black" stroke="black" points="219.63,-38.76 224.63,-48.53 219.88,-43.76 220.14,-48.75 220.14,-48.75 220.14,-48.75 219.88,-43.76 215.64,-48.98 219.63,-38.76 219.63,-38.76"/>
<text text-anchor="middle" x="211" y="-62.65" font-family="Times New Roman,serif" font-size="14.00">YYR</text>
</g>
</g>
</svg>
