<?xml version="1.0" encoding="UTF-8" standalone="no"?>
<!DOCTYPE svg PUBLIC "-//W3C//DTD SVG 1.1//EN"
 "http://www.w3.org/Graphics/SVG/1.1/DTD/svg11.dtd">
<!-- Generated by graphviz version 2.47.1 (20210417.1919)
 -->
<!-- Title: Máquina de Turing que aceita sequências binárias com mais 0&#39;s que 1&#39;s Pages: 1 -->
<svg width="361pt" height="191pt"
 viewBox="0.00 0.00 361.35 190.68" xmlns="http://www.w3.org/2000/svg" xmlns:xlink="http://www.w3.org/1999/xlink">
<g id="graph0" class="graph" transform="scale(1 1) rotate(0) translate(4 186.68)">
<title>Máquina de Turing que aceita sequências binárias com mais 0&#39;s que 1&#39;s</title>
<polygon fill="white" stroke="transparent" points="-4,4 -4,-186.68 357.35,-186.68 357.35,4 -4,4"/>
<!-- Start -->
<g id="node1" class="node">
<title>Start</title>
</g>
<!-- A -->
<g id="node3" class="node">
<title>A</title>
<ellipse fill="none" stroke="black" cx="109" cy="-44.68" rx="18" ry="18"/>
<text text-anchor="middle" x="109" y="-40.98" font-family="Times New Roman,serif" font-size="14.00">A</text>
</g>
<!-- Start&#45;&gt;A -->
<g id="edge1" class="edge">
<title>Start&#45;&gt;A</title>
<path fill="none" stroke="black" d="M54.19,-44.68C62.65,-44.68 72.05,-44.68 80.6,-44.68"/>
<polygon fill="black" stroke="black" points="90.83,-44.68 80.83,-49.18 85.83,-44.68 80.83,-44.68 80.83,-44.68 80.83,-44.68 85.83,-44.68 80.83,-40.18 90.83,-44.68 90.83,-44.68"/>
</g>
<!-- B -->
<g id="node2" class="node">
<title>B</title>
<ellipse fill="none" stroke="black" cx="208" cy="-131.68" rx="18" ry="18"/>
<text text-anchor="middle" x="208" y="-127.98" font-family="Times New Roman,serif" font-size="14.00">B</text>
</g>
<!-- B&#45;&gt;B -->
<g id="edge4" class="edge">
<title>B&#45;&gt;B</title>
<path fill="none" stroke="black" d="M199.64,-147.97C197.62,-158.07 200.41,-167.68 208,-167.68 212.86,-167.68 215.76,-163.74 216.68,-158.25"/>
<polygon fill="black" stroke="black" points="216.36,-147.97 221.17,-157.83 216.52,-152.97 216.67,-157.97 216.67,-157.97 216.67,-157.97 216.52,-152.97 212.17,-158.11 216.36,-147.97 216.36,-147.97"/>
<text text-anchor="middle" x="208" y="-171.48" font-family="Times New Roman,serif" font-size="14.00">00R, XXR</text>
</g>
<!-- D -->
<g id="node4" class="node">
<title>D</title>
<ellipse fill="none" stroke="black" cx="309.85" cy="-40.68" rx="18" ry="18"/>
<text text-anchor="middle" x="309.85" y="-36.98" font-family="Times New Roman,serif" font-size="14.00">D</text>
</g>
<!-- B&#45;&gt;D -->
<g id="edge5" class="edge">
<title>B&#45;&gt;D</title>
<path fill="none" stroke="black" d="M222.05,-119.79C238.87,-104.46 268.3,-77.63 288.18,-59.52"/>
<polygon fill="black" stroke="black" points="295.79,-52.58 291.43,-62.64 292.1,-55.95 288.4,-59.32 288.4,-59.32 288.4,-59.32 292.1,-55.95 285.37,-55.99 295.79,-52.58 295.79,-52.58"/>
<text text-anchor="middle" x="256.5" y="-102.48" font-family="Times New Roman,serif" font-size="14.00">1XL</text>
</g>
<!-- ha -->
<g id="node6" class="node">
<title>ha</title>
<ellipse fill="none" stroke="black" cx="309.85" cy="-132.68" rx="18.72" ry="18.72"/>
<ellipse fill="none" stroke="black" cx="309.85" cy="-132.68" rx="22.7" ry="22.7"/>
<text text-anchor="middle" x="309.85" y="-128.98" font-family="Times New Roman,serif" font-size="14.00">ha</text>
</g>
<!-- B&#45;&gt;ha -->
<g id="edge11" class="edge">
<title>B&#45;&gt;ha</title>
<path fill="none" stroke="black" d="M226.39,-131.86C240.14,-132 259.72,-132.19 276.35,-132.36"/>
<polygon fill="black" stroke="black" points="286.77,-132.46 276.72,-136.86 281.77,-132.41 276.77,-132.36 276.77,-132.36 276.77,-132.36 281.77,-132.41 276.81,-127.86 286.77,-132.46 286.77,-132.46"/>
<text text-anchor="middle" x="256.5" y="-135.48" font-family="Times New Roman,serif" font-size="14.00">$$R</text>
</g>
<!-- A&#45;&gt;B -->
<g id="edge3" class="edge">
<title>A&#45;&gt;B</title>
<path fill="none" stroke="black" d="M123.08,-56.42C139.37,-71.03 167.38,-96.15 186.52,-113.32"/>
<polygon fill="black" stroke="black" points="194.13,-120.14 183.68,-116.81 190.4,-116.8 186.68,-113.46 186.68,-113.46 186.68,-113.46 190.4,-116.8 189.69,-110.11 194.13,-120.14 194.13,-120.14"/>
<text text-anchor="middle" x="158.5" y="-101.48" font-family="Times New Roman,serif" font-size="14.00">0XR</text>
</g>
<!-- A&#45;&gt;A -->
<g id="edge2" class="edge">
<title>A&#45;&gt;A</title>
<path fill="none" stroke="black" d="M102.62,-61.72C101.32,-71.54 103.45,-80.68 109,-80.68 112.47,-80.68 114.6,-77.11 115.4,-72.04"/>
<polygon fill="black" stroke="black" points="115.38,-61.72 119.9,-71.71 115.39,-66.72 115.4,-71.72 115.4,-71.72 115.4,-71.72 115.39,-66.72 110.9,-71.73 115.38,-61.72 115.38,-61.72"/>
<text text-anchor="middle" x="109" y="-84.48" font-family="Times New Roman,serif" font-size="14.00">XXR</text>
</g>
<!-- C -->
<g id="node5" class="node">
<title>C</title>
<ellipse fill="none" stroke="black" cx="208" cy="-44.68" rx="18" ry="18"/>
<text text-anchor="middle" x="208" y="-40.98" font-family="Times New Roman,serif" font-size="14.00">C</text>
</g>
<!-- A&#45;&gt;C -->
<g id="edge6" class="edge">
<title>A&#45;&gt;C</title>
<path fill="none" stroke="black" d="M127.34,-44.68C141.82,-44.68 162.74,-44.68 179.5,-44.68"/>
<polygon fill="black" stroke="black" points="189.81,-44.68 179.81,-49.18 184.81,-44.68 179.81,-44.68 179.81,-44.68 179.81,-44.68 184.81,-44.68 179.81,-40.18 189.81,-44.68 189.81,-44.68"/>
<text text-anchor="middle" x="158.5" y="-48.48" font-family="Times New Roman,serif" font-size="14.00">1XR</text>
</g>
<!-- D&#45;&gt;A -->
<g id="edge10" class="edge">
<title>D&#45;&gt;A</title>
<path fill="none" stroke="black" d="M294.76,-30.86C272.68,-16.69 228.49,6.81 190,-2.68 169.44,-7.75 148.32,-19.15 132.95,-28.8"/>
<polygon fill="black" stroke="black" points="124.17,-34.51 130.1,-25.28 128.36,-31.78 132.56,-29.05 132.56,-29.05 132.56,-29.05 128.36,-31.78 135.01,-32.82 124.17,-34.51 124.17,-34.51"/>
<text text-anchor="middle" x="208" y="-6.48" font-family="Times New Roman,serif" font-size="14.00">$$R</text>
</g>
<!-- D&#45;&gt;D -->
<g id="edge9" class="edge">
<title>D&#45;&gt;D</title>
<path fill="none" stroke="black" d="M300.87,-56.6C298.53,-66.83 301.52,-76.68 309.85,-76.68 315.31,-76.68 318.48,-72.44 319.35,-66.63"/>
<polygon fill="black" stroke="black" points="318.83,-56.6 323.84,-66.35 319.09,-61.59 319.35,-66.59 319.35,-66.59 319.35,-66.59 319.09,-61.59 314.86,-66.82 318.83,-56.6 318.83,-56.6"/>
<text text-anchor="middle" x="309.85" y="-80.48" font-family="Times New Roman,serif" font-size="14.00">00L, 11L, XXL</text>
</g>
<!-- C&#45;&gt;D -->
<g id="edge8" class="edge">
<title>C&#45;&gt;D</title>
<path fill="none" stroke="black" d="M226.39,-43.99C241.57,-43.38 263.85,-42.49 281.43,-41.78"/>
<polygon fill="black" stroke="black" points="291.66,-41.37 281.84,-46.27 286.66,-41.57 281.66,-41.77 281.66,-41.77 281.66,-41.77 286.66,-41.57 281.48,-37.28 291.66,-41.37 291.66,-41.37"/>
<text text-anchor="middle" x="256.5" y="-47.48" font-family="Times New Roman,serif" font-size="14.00">0XL</text>
</g>
<!-- C&#45;&gt;C -->
<g id="edge7" class="edge">
<title>C&#45;&gt;C</title>
<path fill="none" stroke="black" d="M199.64,-60.97C197.62,-71.07 200.41,-80.68 208,-80.68 212.86,-80.68 215.76,-76.74 216.68,-71.25"/>
<polygon fill="black" stroke="black" points="216.36,-60.97 221.17,-70.83 216.52,-65.97 216.67,-70.97 216.67,-70.97 216.67,-70.97 216.52,-65.97 212.17,-71.11 216.36,-60.97 216.36,-60.97"/>
<text text-anchor="middle" x="208" y="-84.48" font-family="Times New Roman,serif" font-size="14.00">11R</text>
</g>
</g>
</svg>
